<svg version="1.1" id="Layer_1" xmlns="http://www.w3.org/2000/svg" xmlns:xlink="http://www.w3.org/1999/xlink" x="0px" y="0px"
	 width="100%" viewBox="0 0 7000 4000" enable-background="new 0 0 7000 4000" xml:space="preserve">
<path fill="none" opacity="1.000000" stroke="none" 
	d="
M5100.000000,4004.000000 
	C3400.000000,4004.000000 1702.000000,4004.000000 4.000000,4004.000000 
	C4.000000,2670.666748 4.000000,1337.333374 4.000000,4.000001 
	C2337.333252,4.000000 4670.666504,4.000000 7004.000000,4.000000 
	C7004.000000,1337.333374 7004.000000,2670.666748 7004.000000,4004.000000 
	C6370.000000,4004.000000 5736.000000,4004.000000 5100.000000,4004.000000 
M3147.844482,699.452026 
	C3130.608887,709.353882 3113.073486,718.776550 3096.235107,729.313354 
	C3083.391846,737.350342 3071.432129,746.799500 3056.476562,756.277344 
	C3040.387939,768.876099 3023.885986,780.989319 3008.341553,794.226990 
	C2995.878418,804.840576 2984.577637,816.818848 2970.304932,829.363831 
	C2947.374512,851.231628 2926.374268,874.845703 2906.916992,899.828125 
	C2902.926270,904.951904 2899.590820,910.586121 2893.647461,917.364929 
	C2870.986328,947.384399 2851.374756,979.343750 2833.610840,1012.442566 
	C2829.602539,1019.911560 2826.661133,1027.953247 2821.053955,1037.425537 
	C2762.026367,1161.833252 2738.464355,1292.517944 2751.025635,1429.757202 
	C2758.375000,1510.051758 2777.905762,1587.110352 2810.696533,1660.761230 
	C2815.522705,1671.601318 2821.386719,1681.979126 2827.243408,1695.459229 
	C2844.024414,1730.809204 2864.773438,1763.772949 2887.555420,1795.500488 
	C2889.816162,1798.649048 2892.714111,1801.340088 2896.023193,1806.916870 
	C2914.130371,1828.556763 2931.827393,1850.559448 2950.511230,1871.689209 
	C2960.438477,1882.916260 2972.077148,1892.630005 2984.003174,1905.278931 
	C2994.834961,1914.906616 3005.298828,1924.992432 3016.583252,1934.056763 
	C3034.491211,1948.441772 3051.503906,1964.105225 3073.816650,1977.130005 
	C3093.272949,1989.151367 3112.521729,2001.528320 3132.271729,2013.045898 
	C3142.343994,2018.919800 3153.315430,2023.250977 3165.562744,2030.475708 
	C3167.882080,2031.667114 3170.155518,2032.959473 3172.527588,2034.034546 
	C3198.022461,2045.588745 3223.188477,2057.986816 3252.801514,2066.748291 
	C3264.723877,2070.482422 3276.534180,2074.635498 3288.593262,2077.857910 
	C3309.502686,2083.445557 3330.211182,2090.079590 3354.820801,2093.227783 
	C3368.551514,2095.501709 3382.209473,2098.494873 3396.028564,2099.896729 
	C3423.064941,2102.639404 3450.173584,2105.995117 3477.285156,2106.317627 
	C3507.727051,2106.679688 3538.206055,2103.986084 3568.665039,2102.540283 
	C3569.905029,2102.481445 3571.105469,2101.590576 3575.841064,2101.456787 
	C3621.769287,2097.400879 3666.572998,2087.638184 3710.573730,2074.197510 
	C3730.200195,2068.202148 3750.196777,2062.987305 3771.330566,2052.602539 
	C3825.484375,2031.565186 3876.103271,2003.900757 3923.231445,1970.056885 
	C3941.483398,1956.949829 3958.427246,1942.020874 3978.530029,1927.114380 
	C3999.226318,1907.356201 4021.337646,1888.868286 4040.396729,1867.640015 
	C4199.377930,1690.562012 4262.841309,1483.604614 4230.757812,1247.940552 
	C4219.625000,1166.164307 4193.297363,1088.731201 4155.004883,1015.582825 
	C4111.291992,932.079712 4053.616699,859.466248 3982.616455,797.485535 
	C3978.294678,793.712891 3974.711914,788.339600 3965.588623,786.788757 
	C3957.918213,780.996887 3952.931396,772.521851 3943.446289,768.147461 
	C3936.061523,764.741577 3931.039795,756.572998 3924.160156,751.649536 
	C3890.726562,727.723328 3855.508057,706.667603 3818.372070,689.036316 
	C3798.137451,679.429382 3778.197754,668.868347 3754.041016,661.653625 
	C3701.470459,641.879639 3647.258545,628.524536 3591.631348,621.185242 
	C3573.214355,618.755432 3554.539551,618.281555 3532.346680,615.937439 
	C3508.385254,615.858521 3484.414062,615.309265 3460.465088,615.819641 
	C3430.489502,616.458435 3400.692627,619.435852 3367.833496,625.305603 
	C3362.660889,626.247986 3357.433838,626.962646 3352.326660,628.179932 
	C3341.516846,630.756348 3330.769287,633.595093 3316.847656,636.125671 
	C3293.477051,641.731201 3270.139404,647.445740 3245.108887,657.147217 
	C3232.052979,662.143860 3218.714600,666.518616 3206.007568,672.283875 
	C3187.312012,680.765991 3169.066895,690.240601 3147.844482,699.452026 
M2115.630859,2754.000000 
	C2115.730225,2793.305420 2115.815186,2832.611084 2115.997314,2871.916260 
	C2116.002686,2873.100098 2117.019775,2874.279297 2118.334717,2877.126709 
	C2141.993896,2877.063477 2166.405029,2877.975586 2192.094482,2876.524902 
	C2192.196533,2867.938232 2192.357178,2860.680420 2192.358398,2853.422607 
	C2192.374756,2752.818359 2192.366699,2652.214355 2192.375732,2551.610107 
	C2192.376221,2545.614502 2192.110107,2539.590088 2192.595459,2533.629883 
	C2193.473145,2522.840576 2197.993408,2514.654541 2209.324951,2511.415039 
	C2221.528564,2507.926270 2232.718262,2510.715088 2239.749756,2520.235352 
	C2242.874512,2524.466309 2245.192383,2529.375244 2247.388428,2534.198486 
	C2290.144287,2628.098877 2332.794678,2722.047363 2375.582520,2815.933105 
	C2379.439453,2824.396240 2383.486328,2832.881592 2388.475342,2840.698975 
	C2401.522949,2861.142822 2419.565186,2875.236572 2443.455322,2881.013184 
	C2467.185303,2886.751221 2490.973389,2886.687500 2514.546631,2880.302246 
	C2549.260742,2870.899414 2571.519043,2845.161621 2576.050781,2809.548584 
	C2576.805664,2803.614258 2577.227051,2797.594727 2577.230469,2791.614014 
	C2577.295410,2679.683594 2577.291260,2567.753174 2577.194580,2455.822754 
	C2577.191406,2452.103760 2576.070801,2448.385986 2575.305420,2443.640625 
	C2562.374268,2443.640625 2550.429199,2443.388428 2538.499756,2443.710205 
	C2526.152100,2444.043213 2513.565674,2442.055176 2500.292480,2445.742188 
	C2500.292480,2454.131592 2500.292236,2461.376709 2500.292236,2468.621582 
	C2500.291992,2568.559570 2500.299561,2668.497559 2500.274658,2768.435547 
	C2500.272949,2775.093018 2500.563965,2781.814453 2499.785645,2788.395508 
	C2497.958252,2803.848145 2484.799805,2812.652588 2469.609619,2809.537598 
	C2456.222168,2806.792969 2449.891602,2797.164795 2444.755859,2785.833252 
	C2401.891602,2691.254150 2358.983643,2596.694580 2315.947998,2502.193359 
	C2312.097656,2493.738525 2307.899902,2485.303955 2302.748779,2477.606201 
	C2289.245605,2457.428955 2270.800537,2444.183594 2246.683350,2438.957275 
	C2222.717285,2433.763916 2198.891602,2434.102539 2175.560547,2441.103027 
	C2146.616943,2449.788086 2127.803223,2469.047852 2119.792969,2498.527344 
	C2116.079346,2512.194092 2115.608887,2526.112061 2115.616211,2540.130371 
	C2115.652832,2610.086914 2115.631592,2680.043457 2115.630859,2754.000000 
M1048.018188,2682.393799 
	C1069.529541,2690.385254 1091.816040,2693.449219 1114.689575,2693.321533 
	C1145.349121,2693.150146 1176.012939,2693.054932 1206.669800,2693.393555 
	C1218.625732,2693.525391 1230.655640,2694.274170 1242.499390,2695.871826 
	C1274.885254,2700.240967 1291.775879,2722.018555 1288.583496,2754.383789 
	C1286.373901,2776.784912 1274.835571,2791.340332 1252.841064,2797.219482 
	C1243.992676,2799.584717 1234.453857,2800.153564 1225.224854,2800.182861 
	C1153.239990,2800.411377 1081.253906,2800.260986 1009.268494,2800.384277 
	C1002.090332,2800.396484 994.689392,2798.967773 987.837585,2801.916504 
	C984.382690,2816.411133 984.059448,2857.137695 987.339722,2875.931641 
	C990.256409,2876.344482 993.455933,2877.190430 996.656006,2877.192627 
	C1076.639648,2877.246094 1156.623779,2877.360840 1236.606567,2877.087891 
	C1257.376099,2877.016846 1277.723999,2873.504639 1297.110718,2865.571289 
	C1325.741333,2853.854736 1346.170532,2834.012939 1356.791992,2804.711914 
	C1368.524292,2772.346191 1368.297241,2739.297363 1360.406738,2706.335938 
	C1352.625732,2673.831787 1332.619507,2650.736572 1302.232300,2636.934570 
	C1294.391846,2633.373291 1286.096313,2630.632568 1277.785278,2628.323730 
	C1257.740845,2622.755371 1237.061890,2621.562988 1216.427246,2621.279785 
	C1183.773193,2620.831299 1151.108521,2621.140625 1118.448364,2621.167236 
	C1106.384644,2621.177002 1094.459229,2620.387939 1083.158081,2615.621338 
	C1070.843628,2610.427979 1061.855591,2601.740479 1057.764038,2589.005371 
	C1053.806763,2576.687988 1054.025635,2564.062744 1058.070923,2551.654785 
	C1062.514404,2538.024902 1071.813599,2529.180664 1085.118408,2524.236816 
	C1094.679565,2520.684082 1104.575439,2520.290039 1114.638306,2520.306152 
	C1180.624878,2520.410645 1246.611938,2520.404541 1312.598511,2520.287598 
	C1319.017456,2520.276123 1325.781006,2521.860840 1331.655396,2518.402588 
	C1334.574341,2495.305908 1333.954224,2458.272705 1330.388062,2444.473389 
	C1327.942871,2444.218506 1325.327881,2443.708984 1322.712769,2443.707520 
	C1248.727661,2443.665527 1174.742310,2443.604492 1100.757446,2443.726318 
	C1083.282349,2443.754883 1066.261597,2447.180664 1049.910278,2453.208740 
	C1016.425720,2465.552490 994.406799,2488.817383 984.025208,2523.156250 
	C978.122498,2542.680176 977.813965,2562.656494 979.023438,2582.610596 
	C981.787354,2628.209473 1001.559631,2662.781738 1048.018188,2682.393799 
M1990.778809,2840.715576 
	C2007.358032,2823.225586 2016.421143,2802.117676 2020.833984,2778.707031 
	C2026.738525,2747.381836 2026.263916,2716.330566 2015.729248,2686.038574 
	C2004.420044,2653.519287 1982.025635,2632.064941 1948.457153,2623.687744 
	C1936.314453,2620.657471 1923.527222,2619.226807 1910.992188,2618.947266 
	C1881.026245,2618.277832 1851.035034,2618.665283 1821.054688,2618.782959 
	C1815.884277,2618.803223 1810.716797,2619.596191 1804.292480,2620.138184 
	C1804.292480,2628.450684 1804.292358,2635.718506 1804.292358,2642.986328 
	C1804.292358,2656.254395 1804.292480,2669.522461 1804.292480,2684.142334 
	C1811.354980,2684.571045 1817.183472,2685.200684 1823.014893,2685.230225 
	C1846.332764,2685.348389 1869.655029,2685.047607 1892.968140,2685.402344 
	C1901.563965,2685.533203 1910.330688,2686.203125 1918.683472,2688.104248 
	C1936.610840,2692.184082 1947.527710,2704.026611 1951.676270,2721.774658 
	C1953.952637,2731.513184 1954.369263,2741.416992 1952.992188,2751.491943 
	C1948.923218,2781.260742 1931.099731,2799.192139 1901.508179,2799.972168 
	C1868.894043,2800.832031 1836.125854,2801.591064 1803.617920,2799.454346 
	C1747.683228,2795.778076 1718.337402,2766.590820 1707.833740,2714.468018 
	C1701.847290,2684.760986 1702.214111,2654.808350 1704.988525,2624.963379 
	C1706.268311,2611.195312 1709.944092,2597.389160 1714.391113,2584.228271 
	C1725.286133,2551.983887 1748.188843,2532.078857 1781.267578,2524.737549 
	C1793.515747,2522.019043 1806.297974,2520.650635 1818.852051,2520.549072 
	C1873.480225,2520.106934 1928.114136,2520.416016 1982.745605,2520.273926 
	C1988.467041,2520.259033 1994.642944,2521.978271 1999.751343,2517.980225 
	C2002.666504,2493.816895 2001.991333,2458.131348 1998.231079,2444.245850 
	C1994.508423,2444.053467 1990.560181,2443.674072 1986.611694,2443.671387 
	C1928.648682,2443.633301 1870.681030,2443.238281 1812.725586,2443.903076 
	C1796.190063,2444.092773 1779.432007,2446.153809 1763.229004,2449.530273 
	C1732.009399,2456.036133 1704.047729,2469.790771 1681.258789,2492.616455 
	C1658.041260,2515.871582 1644.354126,2544.456055 1635.965820,2575.870850 
	C1626.220093,2612.369385 1625.785278,2649.576172 1627.221558,2686.955811 
	C1628.173950,2711.741943 1632.459229,2735.940186 1640.145508,2759.472900 
	C1650.277100,2790.492432 1666.636597,2817.572510 1692.312988,2838.321289 
	C1720.721558,2861.277832 1753.919556,2873.455322 1789.764771,2875.317139 
	C1830.272461,2877.421387 1871.006226,2877.322510 1911.552979,2875.809326 
	C1940.802612,2874.717529 1967.461426,2864.109131 1990.778809,2840.715576 
M4441.063477,2628.457520 
	C4429.700684,2634.993652 4417.312500,2636.400879 4404.454102,2636.367676 
	C4350.496094,2636.227539 4296.536621,2636.092041 4242.581543,2636.487793 
	C4231.372070,2636.570068 4219.914062,2637.831787 4209.041992,2640.482910 
	C4192.374512,2644.546631 4181.406250,2655.756836 4175.860840,2672.118408 
	C4172.390625,2682.357178 4171.570312,2692.894287 4171.589844,2703.629395 
	C4171.683105,2755.588867 4171.608398,2807.548340 4171.666504,2859.507812 
	C4171.672363,2864.765625 4172.167480,2870.022949 4172.426270,2875.098633 
	C4190.109863,2878.195068 4231.383789,2878.029053 4247.707031,2874.657227 
	C4247.707031,2868.351318 4247.706055,2861.753174 4247.707031,2855.155029 
	C4247.712402,2813.187744 4247.592285,2771.219971 4247.785645,2729.253418 
	C4247.861816,2712.683105 4250.887695,2709.987305 4267.781250,2709.306885 
	C4269.111816,2709.253174 4270.445312,2709.285156 4271.777832,2709.285156 
	C4299.755859,2709.284180 4327.733887,2709.245605 4355.711914,2709.323486 
	C4360.303711,2709.336426 4364.894531,2709.863281 4370.346191,2710.207031 
	C4404.337891,2765.107422 4435.632324,2821.478760 4468.984375,2875.685303 
	C4491.497070,2878.315674 4536.690430,2877.869629 4553.469727,2874.599609 
	C4537.101562,2845.906494 4520.503418,2818.134033 4504.466797,2790.041992 
	C4488.408691,2761.911865 4471.078613,2734.477539 4455.799316,2704.710449 
	C4461.723633,2702.114990 4466.509766,2700.002197 4471.309082,2697.918701 
	C4503.021973,2684.150879 4524.443359,2660.561768 4536.157227,2628.373291 
	C4547.384277,2597.522949 4548.734375,2565.802979 4540.616699,2534.047119 
	C4530.057617,2492.738770 4503.814453,2465.515625 4463.601562,2451.862061 
	C4446.469238,2446.045166 4428.736328,2443.556641 4410.569336,2443.590332 
	C4336.626953,2443.726562 4262.684570,2443.627930 4188.742188,2443.674561 
	C4183.479980,2443.677734 4178.217285,2444.152588 4171.896484,2444.459473 
	C4170.114746,2453.431396 4170.827637,2462.048828 4170.723145,2470.579834 
	C4170.625488,2478.572510 4170.444824,2486.577637 4170.772949,2494.558105 
	C4171.114258,2502.870361 4168.948730,2511.575928 4173.506836,2520.359375 
	C4180.643555,2520.359375 4187.261230,2520.359375 4193.879395,2520.359375 
	C4263.158691,2520.359375 4332.437988,2520.355713 4401.717285,2520.366455 
	C4407.045410,2520.367432 4412.405273,2520.110107 4417.695801,2520.585938 
	C4446.853516,2523.208496 4466.652344,2543.677002 4468.047852,2572.987061 
	C4469.092773,2594.944824 4462.193359,2613.599121 4441.063477,2628.457520 
M2651.120117,2796.642334 
	C2640.935547,2822.490234 2630.751221,2848.338379 2620.510254,2874.329834 
	C2636.416016,2878.245361 2688.628906,2878.360596 2704.657471,2874.703125 
	C2706.900146,2869.482910 2709.401611,2864.052246 2711.592285,2858.498535 
	C2726.488770,2820.732178 2741.300781,2782.932617 2756.176270,2745.158203 
	C2783.489014,2675.799316 2810.801758,2606.440674 2838.207275,2537.118652 
	C2840.151123,2532.201904 2842.379883,2527.267578 2845.302734,2522.893311 
	C2852.962158,2511.431396 2875.036621,2512.195312 2880.896973,2524.968994 
	C2883.666016,2531.003662 2886.206055,2537.157715 2888.555176,2543.368896 
	C2928.338867,2648.570068 2968.053711,2753.797363 3007.881592,2858.981689 
	C3010.171631,2865.029785 3010.883057,2872.032959 3017.943848,2877.290039 
	C3026.127197,2877.290039 3035.403076,2877.290039 3044.678711,2877.290039 
	C3053.337891,2877.290039 3062.015625,2877.641602 3070.651367,2877.193115 
	C3079.692627,2876.723145 3089.106445,2879.260010 3098.643066,2874.854004 
	C3097.218506,2870.415771 3096.197754,2866.657471 3094.822021,2863.034180 
	C3048.519043,2741.098389 3002.196045,2619.170410 2955.811035,2497.265869 
	C2953.448486,2491.056885 2950.825439,2484.903320 2947.777100,2479.006348 
	C2937.085449,2458.323730 2920.492188,2445.028809 2897.691650,2439.599854 
	C2875.965332,2434.426758 2854.273193,2434.476562 2832.366943,2438.697266 
	C2806.184082,2443.742432 2787.917480,2458.783936 2775.914795,2482.002441 
	C2772.868652,2487.894287 2770.582275,2494.191895 2768.135254,2500.377441 
	C2729.453125,2598.153809 2690.801758,2695.941895 2651.120117,2796.642334 
M4912.231934,2461.765381 
	C4897.543945,2445.476074 4878.391602,2438.664795 4857.301758,2436.487305 
	C4848.720215,2435.600830 4839.999023,2435.559814 4831.360840,2435.807373 
	C4789.771484,2437.001221 4761.591309,2456.083740 4746.132324,2495.831787 
	C4698.845703,2617.416260 4650.508789,2738.592285 4602.616699,2859.941406 
	C4600.742188,2864.692139 4599.241699,2869.590332 4597.529297,2874.528320 
	C4612.700195,2877.934570 4658.791016,2878.401367 4680.464844,2875.496582 
	C4681.649414,2873.009033 4683.218262,2870.150146 4684.412109,2867.142334 
	C4697.678223,2833.737061 4710.923340,2800.323730 4724.101074,2766.883789 
	C4753.875488,2691.331299 4783.589844,2615.755371 4813.397949,2540.216309 
	C4815.590820,2534.658691 4818.014648,2529.140625 4820.899414,2523.918213 
	C4827.500488,2511.968262 4851.442383,2511.071533 4857.676270,2525.381104 
	C4860.064941,2530.863037 4862.381836,2536.384277 4864.495117,2541.976807 
	C4904.487793,2647.819824 4944.436523,2753.679199 4984.436523,2859.519531 
	C4986.523926,2865.042480 4988.980957,2870.425537 4991.307129,2875.971436 
	C5001.125977,2878.298340 5010.458496,2877.018311 5019.679688,2877.240723 
	C5029.000977,2877.465576 5038.351074,2877.668213 5047.652344,2877.182129 
	C5056.656738,2876.711182 5066.080078,2879.396729 5075.221680,2874.825684 
	C5073.743652,2870.333252 5072.661133,2866.550293 5071.269531,2862.884766 
	C5024.736816,2740.296875 4978.296875,2617.673340 4931.408691,2495.221680 
	C4927.184570,2484.189697 4920.034180,2474.278076 4912.231934,2461.765381 
M5218.883789,2774.004395 
	C5219.481445,2752.260986 5217.623535,2730.421143 5220.153320,2707.624268 
	C5228.545898,2707.345947 5235.734863,2706.905762 5242.923340,2706.900635 
	C5314.212402,2706.848877 5385.501465,2706.929688 5456.790527,2706.775146 
	C5463.900391,2706.759521 5471.435059,2708.663330 5477.978516,2704.386230 
	C5480.858398,2684.208984 5480.419434,2649.360352 5476.838379,2633.853760 
	C5470.062988,2633.622559 5462.867676,2633.168457 5455.672363,2633.163086 
	C5384.383301,2633.109619 5313.093750,2633.182617 5241.804688,2633.049316 
	C5234.711914,2633.036133 5227.284668,2634.513916 5219.464844,2630.679688 
	C5218.579590,2615.280029 5218.725098,2600.113281 5219.509277,2584.894287 
	C5221.305664,2550.052002 5242.939941,2530.818359 5270.872559,2524.439697 
	C5281.806641,2521.943115 5293.241211,2520.643555 5304.460938,2520.560791 
	C5357.758301,2520.168457 5411.060059,2520.455078 5464.359863,2520.278320 
	C5470.051270,2520.259521 5476.393066,2522.322998 5482.531250,2516.268066 
	C5483.229004,2496.728271 5482.884766,2476.160156 5482.747070,2455.608154 
	C5482.722168,2451.927734 5481.270508,2448.256836 5480.533203,2444.838135 
	C5477.448730,2444.340088 5475.492188,2443.749756 5473.535156,2443.747803 
	C5411.574219,2443.685791 5349.611816,2443.472900 5287.652344,2443.777588 
	C5265.507812,2443.886475 5243.949219,2448.374512 5223.323242,2456.537109 
	C5190.014160,2469.718506 5166.267090,2492.732178 5153.314941,2526.337158 
	C5146.057617,2545.167236 5142.675781,2564.782715 5142.677734,2584.975342 
	C5142.685547,2678.250977 5142.668945,2771.526367 5142.746582,2864.802002 
	C5142.749512,2868.573730 5143.621582,2872.344727 5144.233398,2877.283203 
	C5165.880859,2877.283203 5186.445312,2877.397461 5207.005859,2877.177002 
	C5210.685547,2877.137695 5214.350586,2875.712891 5218.883789,2874.743408 
	C5218.883789,2841.882080 5218.883789,2809.942871 5218.883789,2774.004395 
M3715.217041,2609.164307 
	C3710.618896,2637.621338 3710.634521,2666.265381 3713.088623,2694.828857 
	C3715.955078,2728.185791 3722.877930,2760.581055 3738.977539,2790.530029 
	C3754.265625,2818.969238 3775.751221,2840.884033 3804.544189,2855.591309 
	C3835.514404,2871.410889 3868.757812,2877.069336 3903.106689,2877.211182 
	C3955.067627,2877.425537 4007.030029,2877.310059 4058.991943,2877.218018 
	C4064.153076,2877.208740 4069.312500,2876.388916 4074.239258,2875.965576 
	C4077.179199,2849.024170 4076.432373,2814.868652 4072.494873,2800.907227 
	C4066.255127,2800.714600 4059.697510,2800.343506 4053.139404,2800.336426 
	C4005.174561,2800.286377 3957.209961,2800.343994 3909.245117,2800.275146 
	C3901.259277,2800.263672 3893.205078,2800.382324 3885.301514,2799.441406 
	C3861.031006,2796.552002 3838.531982,2789.522217 3820.754639,2771.299316 
	C3808.263184,2758.494873 3800.681641,2743.171875 3796.231689,2726.213379 
	C3787.852539,2694.280762 3786.395020,2661.791016 3790.002686,2629.090088 
	C3791.753906,2613.215820 3794.414551,2597.470215 3800.285156,2582.429932 
	C3812.650391,2550.750488 3835.518311,2531.221924 3868.610107,2524.275391 
	C3880.245361,2521.832520 3892.336670,2520.626709 3904.233398,2520.530762 
	C3954.193359,2520.128174 4004.158691,2520.392334 4054.122070,2520.318848 
	C4060.610352,2520.309082 4067.097900,2519.752686 4073.237793,2519.466064 
	C4076.721191,2500.875977 4076.543945,2460.221680 4072.962402,2444.606201 
	C4068.708008,2444.299316 4064.176025,2443.692871 4059.643555,2443.687500 
	C4005.683105,2443.624023 3951.719238,2443.299561 3897.764893,2443.877197 
	C3882.547363,2444.040039 3867.101318,2445.669922 3852.202881,2448.761475 
	C3791.377686,2461.382568 3749.363770,2496.550049 3727.932861,2555.346924 
	C3721.990479,2571.649902 3717.843994,2588.429443 3715.217041,2609.164307 
M5670.775391,2673.999512 
	C5670.968750,2739.965088 5671.161133,2805.930908 5671.375977,2871.896484 
	C5671.377930,2872.528320 5671.564453,2873.227783 5671.878906,2873.771240 
	C5672.201172,2874.328857 5672.788086,2874.733398 5673.260254,2875.203613 
	C5692.898438,2878.390381 5731.838379,2877.975586 5747.171875,2874.098633 
	C5747.339355,2869.331055 5747.668457,2864.114014 5747.680176,2858.896240 
	C5747.736328,2833.571289 5747.707520,2808.246582 5747.707520,2782.921631 
	C5747.708008,2702.948242 5747.665039,2622.975098 5747.780273,2543.001709 
	C5747.790527,2535.922119 5746.387695,2528.507812 5750.102539,2521.024658 
	C5757.112305,2520.793213 5763.674316,2520.404053 5770.236816,2520.388916 
	C5800.226562,2520.319824 5830.217285,2520.418945 5860.206055,2520.283691 
	C5864.593262,2520.263916 5868.976074,2519.306641 5874.436035,2518.654785 
	C5875.248535,2496.818115 5874.810547,2476.247803 5874.720215,2455.697266 
	C5874.704102,2452.004639 5873.278320,2448.318115 5872.295410,2443.640869 
	C5864.813477,2443.640869 5858.199707,2443.640869 5851.585449,2443.640869 
	C5816.930176,2443.640869 5782.275391,2443.640381 5747.620117,2443.640625 
	C5686.307129,2443.640625 5624.994629,2443.582031 5563.681641,2443.729736 
	C5557.297363,2443.745117 5550.366699,2441.770996 5543.662109,2447.410889 
	C5543.662109,2467.476074 5543.545898,2488.082764 5543.770508,2508.685791 
	C5543.810547,2512.381836 5545.256348,2516.062744 5546.184570,2520.359375 
	C5567.108398,2520.359375 5587.086914,2520.149414 5607.058594,2520.417725 
	C5627.511719,2520.692383 5648.041016,2519.209473 5670.752930,2521.592529 
	C5670.793945,2571.732666 5670.768555,2620.866455 5670.775391,2673.999512 
M3140.292480,2689.992432 
	C3140.292969,2703.322754 3139.808350,2716.676025 3140.430176,2729.977295 
	C3141.050537,2743.242920 3141.665527,2756.676270 3144.224121,2769.653564 
	C3153.436768,2816.379883 3179.833252,2849.129639 3225.122070,2865.706299 
	C3240.853516,2871.464355 3257.105957,2875.868896 3273.790527,2876.048828 
	C3338.420166,2876.746338 3403.057373,2876.724121 3467.692383,2876.826904 
	C3469.370605,2876.829590 3471.051514,2875.187012 3473.093018,2874.123291 
	C3473.093018,2851.971191 3473.163574,2829.994141 3472.990234,2808.018799 
	C3472.971924,2805.673340 3471.531494,2803.338867 3470.520508,2800.309326 
	C3463.188721,2800.309326 3456.564697,2800.309570 3449.940430,2800.309326 
	C3400.617920,2800.307373 3351.295166,2800.176758 3301.973389,2800.376221 
	C3285.760742,2800.441895 3270.081055,2798.237549 3255.133789,2791.898682 
	C3235.986572,2783.779053 3223.886475,2769.402832 3219.649414,2749.130127 
	C3217.620605,2739.424805 3216.700928,2729.353760 3216.512451,2719.424805 
	C3216.069824,2696.104980 3216.368896,2672.770996 3216.368896,2649.442871 
	C3216.368408,2587.456543 3216.430420,2525.469971 3216.274170,2463.484131 
	C3216.258301,2457.114258 3218.355469,2450.135010 3213.311035,2444.629150 
	C3182.255127,2442.241943 3155.321533,2442.945312 3140.301270,2446.902100 
	C3140.284180,2526.295654 3140.295898,2606.145752 3140.292480,2689.992432 
M1532.369263,2470.330566 
	C1531.807983,2461.925781 1533.876465,2453.231689 1530.549927,2445.354004 
	C1506.269653,2442.263428 1469.847046,2442.935547 1455.654785,2446.970215 
	C1455.654785,2586.204834 1455.648682,2725.841553 1455.693237,2865.478027 
	C1455.694214,2868.656738 1456.268921,2871.835693 1456.542847,2874.671387 
	C1474.054321,2878.070557 1513.688354,2878.090576 1530.258057,2874.937012 
	C1530.820068,2873.789062 1531.872925,2872.641602 1531.874756,2871.492920 
	C1532.090210,2739.084717 1532.227661,2606.676270 1532.369263,2470.330566 
z"/>
<path fill="#5B9CD4" opacity="1.000000" stroke="none" 
	d="
M3967.994629,788.129761 
	C3974.711914,788.339600 3978.294678,793.712891 3982.616455,797.485535 
	C4053.616699,859.466248 4111.291992,932.079712 4155.004883,1015.582825 
	C4193.297363,1088.731201 4219.625000,1166.164307 4230.757812,1247.940552 
	C4262.841309,1483.604614 4199.377930,1690.562012 4040.396729,1867.640015 
	C4021.337646,1888.868286 3999.226318,1907.356201 3976.585449,1925.992432 
	C3973.760498,1916.347412 3972.125000,1907.825195 3972.113525,1899.300903 
	C3971.947998,1775.636597 3972.006836,1651.971924 3971.981934,1528.307373 
	C3971.980469,1521.666260 3971.877686,1515.016235 3971.513916,1508.387329 
	C3971.266357,1503.875732 3968.258057,1501.359253 3964.397461,1498.595947 
	C3965.990479,1494.163940 3967.378174,1491.155640 3968.698242,1488.117798 
	C4007.960205,1397.773315 4007.080322,1308.047119 3964.579102,1218.945923 
	C3962.879395,1215.382935 3961.529297,1211.653320 3961.476562,1207.415405 
	C3964.536377,1204.088013 3967.135010,1201.480835 3967.525879,1198.576660 
	C3968.317383,1192.695557 3967.988525,1186.653564 3967.989014,1180.677856 
	C3968.002197,1049.828491 3967.996582,918.979126 3967.994629,788.129761 
z"/>
<path fill="#52AADF" opacity="1.000000" stroke="none" 
	d="
M3768.319580,2052.833496 
	C3750.196777,2062.987305 3730.200195,2068.202148 3710.573730,2074.197510 
	C3666.572998,2087.638184 3621.769287,2097.400879 3574.269531,2099.545410 
	C3573.798828,2087.785400 3575.846924,2077.937744 3575.858887,2068.087646 
	C3576.056641,1903.318726 3575.942139,1738.549194 3576.113037,1573.780029 
	C3576.126221,1560.982300 3574.938232,1548.623779 3570.822266,1535.616455 
	C3600.823975,1500.988037 3630.257568,1467.471313 3659.585449,1433.862549 
	C3663.944092,1428.867676 3668.519775,1423.845215 3671.762451,1418.135498 
	C3680.963623,1401.934570 3676.735596,1381.097534 3662.494141,1369.271362 
	C3648.685791,1357.804810 3628.908447,1357.161987 3614.439697,1368.227783 
	C3609.732178,1371.828125 3605.862305,1376.546997 3601.725342,1380.865234 
	C3594.391113,1388.521118 3587.145996,1396.261963 3578.920898,1402.610596 
	C3577.319092,1394.023071 3576.109863,1386.794189 3576.087891,1379.561523 
	C3575.925293,1326.273438 3575.875732,1272.984009 3576.068115,1219.696167 
	C3576.135254,1201.051514 3576.253174,1182.461670 3572.936279,1163.093750 
	C3608.650879,1140.429321 3647.082275,1130.457642 3687.549561,1129.745850 
	C3710.648682,1129.339355 3734.101074,1130.913330 3755.996582,1142.184814 
	C3755.999023,1289.819824 3755.999268,1435.603638 3756.000000,1581.387573 
	C3756.000000,1588.710083 3756.136719,1596.035400 3755.972900,1603.354126 
	C3755.806641,1610.803711 3756.780273,1617.955811 3759.936768,1626.169189 
	C3750.481445,1648.550537 3754.771729,1666.263916 3771.973877,1682.783203 
	C3771.988770,1783.557129 3772.024414,1882.517212 3771.978271,1981.477173 
	C3771.967285,2005.317749 3773.270508,2029.240112 3768.319580,2052.833496 
z"/>
<path fill="#4CB0E5" opacity="1.000000" stroke="none" 
	d="
M3570.219971,1536.698486 
	C3574.938232,1548.623779 3576.126221,1560.982300 3576.113037,1573.780029 
	C3575.942139,1738.549194 3576.056641,1903.318726 3575.858887,2068.087646 
	C3575.846924,2077.937744 3573.798828,2087.785400 3572.511230,2099.360840 
	C3571.105469,2101.590576 3569.905029,2102.481445 3568.665039,2102.540283 
	C3538.206055,2103.986084 3507.727051,2106.679688 3477.285156,2106.317627 
	C3450.173584,2105.995117 3423.064941,2102.639404 3396.028564,2099.896729 
	C3382.209473,2098.494873 3368.551514,2095.501709 3353.403320,2090.655762 
	C3352.016846,1939.146118 3352.048096,1790.208740 3353.824463,1640.948730 
	C3368.714600,1638.997559 3382.009033,1638.135864 3394.979004,1635.609131 
	C3454.324951,1624.048828 3506.644287,1598.617432 3549.935791,1555.746826 
	C3556.524170,1549.222656 3563.449951,1543.039307 3570.219971,1536.698486 
z"/>
<path fill="#4C9BCD" opacity="1.000000" stroke="none" 
	d="
M2115.630859,2752.000000 
	C2115.631592,2680.043457 2115.652832,2610.086914 2115.616211,2540.130371 
	C2115.608887,2526.112061 2116.079346,2512.194092 2119.792969,2498.527344 
	C2127.803223,2469.047852 2146.616943,2449.788086 2175.560547,2441.103027 
	C2198.891602,2434.102539 2222.717285,2433.763916 2246.683350,2438.957275 
	C2270.800537,2444.183594 2289.245605,2457.428955 2302.748779,2477.606201 
	C2307.899902,2485.303955 2312.097656,2493.738525 2315.947998,2502.193359 
	C2358.983643,2596.694580 2401.891602,2691.254150 2444.755859,2785.833252 
	C2449.891602,2797.164795 2456.222168,2806.792969 2469.609619,2809.537598 
	C2484.799805,2812.652588 2497.958252,2803.848145 2499.785645,2788.395508 
	C2500.563965,2781.814453 2500.272949,2775.093018 2500.274658,2768.435547 
	C2500.299561,2668.497559 2500.291992,2568.559570 2500.292236,2468.621582 
	C2500.292236,2461.376709 2500.292480,2454.131592 2500.292480,2445.742188 
	C2513.565674,2442.055176 2526.152100,2444.043213 2538.499756,2443.710205 
	C2550.429199,2443.388428 2562.374268,2443.640625 2575.305420,2443.640625 
	C2576.070801,2448.385986 2577.191406,2452.103760 2577.194580,2455.822754 
	C2577.291260,2567.753174 2577.295410,2679.683594 2577.230469,2791.614014 
	C2577.227051,2797.594727 2576.805664,2803.614258 2576.050781,2809.548584 
	C2571.519043,2845.161621 2549.260742,2870.899414 2514.546631,2880.302246 
	C2490.973389,2886.687500 2467.185303,2886.751221 2443.455322,2881.013184 
	C2419.565186,2875.236572 2401.522949,2861.142822 2388.475342,2840.698975 
	C2383.486328,2832.881592 2379.439453,2824.396240 2375.582520,2815.933105 
	C2332.794678,2722.047363 2290.144287,2628.098877 2247.388428,2534.198486 
	C2245.192383,2529.375244 2242.874512,2524.466309 2239.749756,2520.235352 
	C2232.718262,2510.715088 2221.528564,2507.926270 2209.324951,2511.415039 
	C2197.993408,2514.654541 2193.473145,2522.840576 2192.595459,2533.629883 
	C2192.110107,2539.590088 2192.376221,2545.614502 2192.375732,2551.610107 
	C2192.366699,2652.214355 2192.374756,2752.818359 2192.358398,2853.422607 
	C2192.357178,2860.680420 2192.196533,2867.938232 2192.094482,2876.524902 
	C2166.405029,2877.975586 2141.993896,2877.063477 2118.334717,2877.126709 
	C2117.019775,2874.279297 2116.002686,2873.100098 2115.997314,2871.916260 
	C2115.815186,2832.611084 2115.730225,2793.305420 2115.630859,2752.000000 
z"/>
<path fill="#51ABE0" opacity="1.000000" stroke="none" 
	d="
M3535.982666,616.913391 
	C3554.539551,618.281555 3573.214355,618.755432 3591.631348,621.185242 
	C3647.258545,628.524536 3701.470459,641.879639 3755.082520,664.363647 
	C3761.272705,689.295349 3759.961426,711.895325 3759.978760,734.404663 
	C3760.034912,806.774048 3760.202148,879.144165 3759.912842,951.512390 
	C3759.772705,986.598145 3762.416992,1021.827271 3754.125488,1056.711182 
	C3748.463379,1056.231567 3744.490234,1055.794678 3740.543213,1055.187988 
	C3674.759766,1045.077515 3611.912354,1054.176147 3552.187988,1083.872681 
	C3546.846924,1086.528442 3541.382812,1088.936523 3535.980713,1089.618896 
	C3535.984619,930.823242 3535.983643,773.868347 3535.982666,616.913391 
z"/>
<path fill="#4C9BCD" opacity="1.000000" stroke="none" 
	d="
M1046.629272,2681.728027 
	C1001.559631,2662.781738 981.787354,2628.209473 979.023438,2582.610596 
	C977.813965,2562.656494 978.122498,2542.680176 984.025208,2523.156250 
	C994.406799,2488.817383 1016.425720,2465.552490 1049.910278,2453.208740 
	C1066.261597,2447.180664 1083.282349,2443.754883 1100.757446,2443.726318 
	C1174.742310,2443.604492 1248.727661,2443.665527 1322.712769,2443.707520 
	C1325.327881,2443.708984 1327.942871,2444.218506 1330.388062,2444.473389 
	C1333.954224,2458.272705 1334.574341,2495.305908 1331.655396,2518.402588 
	C1325.781006,2521.860840 1319.017456,2520.276123 1312.598511,2520.287598 
	C1246.611938,2520.404541 1180.624878,2520.410645 1114.638306,2520.306152 
	C1104.575439,2520.290039 1094.679565,2520.684082 1085.118408,2524.236816 
	C1071.813599,2529.180664 1062.514404,2538.024902 1058.070923,2551.654785 
	C1054.025635,2564.062744 1053.806763,2576.687988 1057.764038,2589.005371 
	C1061.855591,2601.740479 1070.843628,2610.427979 1083.158081,2615.621338 
	C1094.459229,2620.387939 1106.384644,2621.177002 1118.448364,2621.167236 
	C1151.108521,2621.140625 1183.773193,2620.831299 1216.427246,2621.279785 
	C1237.061890,2621.562988 1257.740845,2622.755371 1277.785278,2628.323730 
	C1286.096313,2630.632568 1294.391846,2633.373291 1302.232300,2636.934570 
	C1332.619507,2650.736572 1352.625732,2673.831787 1360.406738,2706.335938 
	C1368.297241,2739.297363 1368.524292,2772.346191 1356.791992,2804.711914 
	C1346.170532,2834.012939 1325.741333,2853.854736 1297.110718,2865.571289 
	C1277.723999,2873.504639 1257.376099,2877.016846 1236.606567,2877.087891 
	C1156.623779,2877.360840 1076.639648,2877.246094 996.656006,2877.192627 
	C993.455933,2877.190430 990.256409,2876.344482 987.339722,2875.931641 
	C984.059448,2857.137695 984.382690,2816.411133 987.837585,2801.916504 
	C994.689392,2798.967773 1002.090332,2800.396484 1009.268494,2800.384277 
	C1081.253906,2800.260986 1153.239990,2800.411377 1225.224854,2800.182861 
	C1234.453857,2800.153564 1243.992676,2799.584717 1252.841064,2797.219482 
	C1274.835571,2791.340332 1286.373901,2776.784912 1288.583496,2754.383789 
	C1291.775879,2722.018555 1274.885254,2700.240967 1242.499390,2695.871826 
	C1230.655640,2694.274170 1218.625732,2693.525391 1206.669800,2693.393555 
	C1176.012939,2693.054932 1145.349121,2693.150146 1114.689575,2693.321533 
	C1091.816040,2693.449219 1069.529541,2690.385254 1046.629272,2681.728027 
z"/>
<path fill="#4C9BCD" opacity="1.000000" stroke="none" 
	d="
M1989.770996,2841.725098 
	C1967.461426,2864.109131 1940.802612,2874.717529 1911.552979,2875.809326 
	C1871.006226,2877.322510 1830.272461,2877.421387 1789.764771,2875.317139 
	C1753.919556,2873.455322 1720.721558,2861.277832 1692.312988,2838.321289 
	C1666.636597,2817.572510 1650.277100,2790.492432 1640.145508,2759.472900 
	C1632.459229,2735.940186 1628.173950,2711.741943 1627.221558,2686.955811 
	C1625.785278,2649.576172 1626.220093,2612.369385 1635.965820,2575.870850 
	C1644.354126,2544.456055 1658.041260,2515.871582 1681.258789,2492.616455 
	C1704.047729,2469.790771 1732.009399,2456.036133 1763.229004,2449.530273 
	C1779.432007,2446.153809 1796.190063,2444.092773 1812.725586,2443.903076 
	C1870.681030,2443.238281 1928.648682,2443.633301 1986.611694,2443.671387 
	C1990.560181,2443.674072 1994.508423,2444.053467 1998.231079,2444.245850 
	C2001.991333,2458.131348 2002.666504,2493.816895 1999.751343,2517.980225 
	C1994.642944,2521.978271 1988.467041,2520.259033 1982.745605,2520.273926 
	C1928.114136,2520.416016 1873.480225,2520.106934 1818.852051,2520.549072 
	C1806.297974,2520.650635 1793.515747,2522.019043 1781.267578,2524.737549 
	C1748.188843,2532.078857 1725.286133,2551.983887 1714.391113,2584.228271 
	C1709.944092,2597.389160 1706.268311,2611.195312 1704.988525,2624.963379 
	C1702.214111,2654.808350 1701.847290,2684.760986 1707.833740,2714.468018 
	C1718.337402,2766.590820 1747.683228,2795.778076 1803.617920,2799.454346 
	C1836.125854,2801.591064 1868.894043,2800.832031 1901.508179,2799.972168 
	C1931.099731,2799.192139 1948.923218,2781.260742 1952.992188,2751.491943 
	C1954.369263,2741.416992 1953.952637,2731.513184 1951.676270,2721.774658 
	C1947.527710,2704.026611 1936.610840,2692.184082 1918.683472,2688.104248 
	C1910.330688,2686.203125 1901.563965,2685.533203 1892.968140,2685.402344 
	C1869.655029,2685.047607 1846.332764,2685.348389 1823.014893,2685.230225 
	C1817.183472,2685.200684 1811.354980,2684.571045 1804.292480,2684.142334 
	C1804.292480,2669.522461 1804.292358,2656.254395 1804.292358,2642.986328 
	C1804.292358,2635.718506 1804.292480,2628.450684 1804.292480,2620.138184 
	C1810.716797,2619.596191 1815.884277,2618.803223 1821.054688,2618.782959 
	C1851.035034,2618.665283 1881.026245,2618.277832 1910.992188,2618.947266 
	C1923.527222,2619.226807 1936.314453,2620.657471 1948.457153,2623.687744 
	C1982.025635,2632.064941 2004.420044,2653.519287 2015.729248,2686.038574 
	C2026.263916,2716.330566 2026.738525,2747.381836 2020.833984,2778.707031 
	C2016.421143,2802.117676 2007.358032,2823.225586 1989.770996,2841.725098 
z"/>
<path fill="#7FC8EF" opacity="1.000000" stroke="none" 
	d="
M2972.760986,828.191528 
	C2984.577637,816.818848 2995.878418,804.840576 3008.341553,794.226990 
	C3023.885986,780.989319 3040.387939,768.876099 3059.305176,756.542358 
	C3066.129150,758.872070 3067.629150,762.422607 3067.750732,766.642334 
	C3067.922852,772.632874 3067.998535,778.628174 3067.999023,784.621399 
	C3068.012695,900.532349 3068.006104,1016.443298 3068.018311,1132.354248 
	C3068.018799,1138.348145 3068.110596,1144.342773 3068.226318,1150.335693 
	C3068.354492,1156.968506 3071.652832,1161.626709 3077.212402,1166.177368 
	C3073.658936,1174.825928 3070.175537,1181.962158 3066.920410,1189.201050 
	C3060.387451,1203.730347 3053.259521,1218.045166 3047.660400,1232.931152 
	C3033.634033,1270.222778 3030.246094,1309.100708 3031.381348,1348.667725 
	C3032.229492,1378.227905 3038.811523,1406.520630 3047.475342,1434.572388 
	C3052.759277,1451.680542 3062.623535,1463.882202 3079.700195,1470.793457 
	C3075.099365,1481.843018 3076.014648,1491.926636 3076.013184,1501.886230 
	C3075.994141,1649.103638 3075.970947,1796.321045 3076.059814,1943.538452 
	C3076.066406,1954.259888 3075.857422,1964.844604 3071.996094,1975.015625 
	C3051.503906,1964.105225 3034.491211,1948.441772 3016.583252,1934.056763 
	C3005.298828,1924.992432 2994.834961,1914.906616 2983.890137,1902.311035 
	C2988.236816,1887.895752 2988.040039,1875.924683 2988.038330,1863.909790 
	C2987.990479,1528.383301 2988.000244,1192.856812 2987.996582,857.330261 
	C2987.996582,852.004639 2988.140381,846.669800 2987.882812,841.355408 
	C2987.362305,830.604492 2986.629883,830.055481 2972.760986,828.191528 
z"/>
<path fill="#4BB1E5" opacity="1.000000" stroke="none" 
	d="
M3534.164551,616.425415 
	C3535.983643,773.868347 3535.984619,930.823242 3534.997559,1090.580200 
	C3509.203125,1108.943237 3485.898682,1126.429810 3466.196289,1148.229370 
	C3436.495117,1181.092163 3407.100098,1214.231689 3376.818604,1245.517090 
	C3370.788330,1233.848022 3372.032715,1223.043335 3372.030273,1212.457397 
	C3371.988281,1027.429321 3372.011963,842.401245 3371.968262,657.373169 
	C3371.965820,646.731018 3371.507080,636.089050 3371.260498,625.446960 
	C3400.692627,619.435852 3430.489502,616.458435 3460.465088,615.819641 
	C3484.414062,615.309265 3508.385254,615.858521 3534.164551,616.425415 
z"/>
<path fill="#4C9BCD" opacity="1.000000" stroke="none" 
	d="
M4442.411133,2627.687988 
	C4462.193359,2613.599121 4469.092773,2594.944824 4468.047852,2572.987061 
	C4466.652344,2543.677002 4446.853516,2523.208496 4417.695801,2520.585938 
	C4412.405273,2520.110107 4407.045410,2520.367432 4401.717285,2520.366455 
	C4332.437988,2520.355713 4263.158691,2520.359375 4193.879395,2520.359375 
	C4187.261230,2520.359375 4180.643555,2520.359375 4173.506836,2520.359375 
	C4168.948730,2511.575928 4171.114258,2502.870361 4170.772949,2494.558105 
	C4170.444824,2486.577637 4170.625488,2478.572510 4170.723145,2470.579834 
	C4170.827637,2462.048828 4170.114746,2453.431396 4171.896484,2444.459473 
	C4178.217285,2444.152588 4183.479980,2443.677734 4188.742188,2443.674561 
	C4262.684570,2443.627930 4336.626953,2443.726562 4410.569336,2443.590332 
	C4428.736328,2443.556641 4446.469238,2446.045166 4463.601562,2451.862061 
	C4503.814453,2465.515625 4530.057617,2492.738770 4540.616699,2534.047119 
	C4548.734375,2565.802979 4547.384277,2597.522949 4536.157227,2628.373291 
	C4524.443359,2660.561768 4503.021973,2684.150879 4471.309082,2697.918701 
	C4466.509766,2700.002197 4461.723633,2702.114990 4455.799316,2704.710449 
	C4471.078613,2734.477539 4488.408691,2761.911865 4504.466797,2790.041992 
	C4520.503418,2818.134033 4537.101562,2845.906494 4553.469727,2874.599609 
	C4536.690430,2877.869629 4491.497070,2878.315674 4468.984375,2875.685303 
	C4435.632324,2821.478760 4404.337891,2765.107422 4370.346191,2710.207031 
	C4364.894531,2709.863281 4360.303711,2709.336426 4355.711914,2709.323486 
	C4327.733887,2709.245605 4299.755859,2709.284180 4271.777832,2709.285156 
	C4270.445312,2709.285156 4269.111816,2709.253174 4267.781250,2709.306885 
	C4250.887695,2709.987305 4247.861816,2712.683105 4247.785645,2729.253418 
	C4247.592285,2771.219971 4247.712402,2813.187744 4247.707031,2855.155029 
	C4247.706055,2861.753174 4247.707031,2868.351318 4247.707031,2874.657227 
	C4231.383789,2878.029053 4190.109863,2878.195068 4172.426270,2875.098633 
	C4172.167480,2870.022949 4171.672363,2864.765625 4171.666504,2859.507812 
	C4171.608398,2807.548340 4171.683105,2755.588867 4171.589844,2703.629395 
	C4171.570312,2692.894287 4172.390625,2682.357178 4175.860840,2672.118408 
	C4181.406250,2655.756836 4192.374512,2644.546631 4209.041992,2640.482910 
	C4219.914062,2637.831787 4231.372070,2636.570068 4242.581543,2636.487793 
	C4296.536621,2636.092041 4350.496094,2636.227539 4404.454102,2636.367676 
	C4417.312500,2636.400879 4429.700684,2634.993652 4442.411133,2627.687988 
z"/>
<path fill="#56A3DA" opacity="1.000000" stroke="none" 
	d="
M3755.826416,1056.675049 
	C3762.416992,1021.827271 3759.772705,986.598145 3759.912842,951.512390 
	C3760.202148,879.144165 3760.034912,806.774048 3759.978760,734.404663 
	C3759.961426,711.895325 3761.272705,689.295349 3756.135742,665.340576 
	C3778.197754,668.868347 3798.137451,679.429382 3818.372070,689.036316 
	C3855.508057,706.667603 3890.726562,727.723328 3924.160156,751.649536 
	C3931.039795,756.572998 3936.061523,764.741577 3943.446289,768.147461 
	C3952.931396,772.521851 3957.918213,780.996887 3966.791504,787.459229 
	C3967.996582,918.979126 3968.002197,1049.828491 3967.989014,1180.677856 
	C3967.988525,1186.653564 3968.317383,1192.695557 3967.525879,1198.576660 
	C3967.135010,1201.480835 3964.536377,1204.088013 3960.446777,1206.535400 
	C3945.179932,1188.556519 3933.716553,1169.716431 3919.374268,1153.408325 
	C3879.812012,1108.423462 3830.609863,1078.129272 3772.726318,1062.156860 
	C3767.022949,1060.583008 3761.456543,1058.514160 3755.826416,1056.675049 
z"/>
<path fill="#88CCF1" opacity="1.000000" stroke="none" 
	d="
M2971.532959,828.777710 
	C2986.629883,830.055481 2987.362305,830.604492 2987.882812,841.355408 
	C2988.140381,846.669800 2987.996582,852.004639 2987.996582,857.330261 
	C2988.000244,1192.856812 2987.990479,1528.383301 2988.038330,1863.909790 
	C2988.040039,1875.924683 2988.236816,1887.895752 2983.360107,1901.184937 
	C2972.077148,1892.630005 2960.438477,1882.916260 2950.511230,1871.689209 
	C2931.827393,1850.559448 2914.130371,1828.556763 2897.111084,1805.086914 
	C2899.908203,1801.336670 2902.332520,1799.694580 2903.206055,1797.449341 
	C2907.618896,1786.106567 2908.081299,1774.204468 2908.074951,1762.133789 
	C2907.968994,1565.155884 2908.000000,1368.177856 2908.000000,1171.199951 
	C2908.000000,1100.660522 2907.805664,1030.120239 2908.176514,959.582703 
	C2908.244141,946.724854 2905.684082,934.486572 2902.888916,922.224060 
	C2902.323975,919.746094 2898.353760,918.044556 2895.953613,915.985107 
	C2899.590820,910.586121 2902.926270,904.951904 2906.916992,899.828125 
	C2926.374268,874.845703 2947.374512,851.231628 2971.532959,828.777710 
z"/>
<path fill="#67BDEB" opacity="1.000000" stroke="none" 
	d="
M3250.594238,2064.672607 
	C3223.188477,2057.986816 3198.022461,2045.588745 3172.527588,2034.034546 
	C3170.155518,2032.959473 3167.882080,2031.667114 3165.386719,2027.825928 
	C3169.273926,2016.302246 3167.951416,2006.851562 3167.953613,1997.603760 
	C3168.011230,1733.992432 3168.004150,1470.380981 3167.978760,1206.769653 
	C3167.978027,1198.785278 3167.664551,1190.800781 3168.035645,1181.642456 
	C3185.540039,1160.946533 3202.408691,1141.339111 3219.510742,1121.937256 
	C3228.697754,1111.515015 3238.285400,1101.445679 3248.368164,1092.800293 
	C3253.172607,1103.237305 3251.956299,1112.692139 3251.960449,1121.955933 
	C3252.021973,1265.202637 3252.010986,1408.449341 3250.853760,1552.449707 
	C3246.248535,1555.161133 3242.649658,1556.889648 3239.388672,1559.113770 
	C3215.918701,1575.120850 3217.594482,1615.371216 3247.210693,1627.079224 
	C3251.497559,1628.773926 3255.751953,1630.550781 3260.019531,1634.146118 
	C3260.011719,1766.547119 3260.007812,1897.091675 3259.993652,2027.636108 
	C3259.993164,2033.629639 3259.991943,2039.625732 3259.827393,2045.616089 
	C3259.615723,2053.320557 3256.942139,2059.905273 3250.594238,2064.672607 
z"/>
<path fill="#56A3DA" opacity="1.000000" stroke="none" 
	d="
M3769.825195,2052.718018 
	C3773.270508,2029.240112 3771.967285,2005.317749 3771.978271,1981.477173 
	C3772.024414,1882.517212 3771.988770,1783.557129 3773.335938,1683.158081 
	C3785.319824,1686.891602 3796.130615,1688.010620 3807.449951,1683.838135 
	C3815.919189,1680.716187 3821.884033,1674.672852 3827.630371,1668.147827 
	C3857.029541,1634.764160 3886.474365,1601.420898 3915.909424,1568.068970 
	C3931.775146,1550.092163 3945.930664,1530.899780 3957.594727,1509.903931 
	C3959.511475,1506.453735 3961.958740,1503.297852 3964.160645,1500.005859 
	C3968.258057,1501.359253 3971.266357,1503.875732 3971.513916,1508.387329 
	C3971.877686,1515.016235 3971.980469,1521.666260 3971.981934,1528.307373 
	C3972.006836,1651.971924 3971.947998,1775.636597 3972.113525,1899.300903 
	C3972.125000,1907.825195 3973.760498,1916.347412 3975.303955,1926.396240 
	C3958.427246,1942.020874 3941.483398,1956.949829 3923.231445,1970.056885 
	C3876.103271,2003.900757 3825.484375,2031.565186 3769.825195,2052.718018 
z"/>
<path fill="#4C9ACD" opacity="1.000000" stroke="none" 
	d="
M2651.631836,2795.184814 
	C2690.801758,2695.941895 2729.453125,2598.153809 2768.135254,2500.377441 
	C2770.582275,2494.191895 2772.868652,2487.894287 2775.914795,2482.002441 
	C2787.917480,2458.783936 2806.184082,2443.742432 2832.366943,2438.697266 
	C2854.273193,2434.476562 2875.965332,2434.426758 2897.691650,2439.599854 
	C2920.492188,2445.028809 2937.085449,2458.323730 2947.777100,2479.006348 
	C2950.825439,2484.903320 2953.448486,2491.056885 2955.811035,2497.265869 
	C3002.196045,2619.170410 3048.519043,2741.098389 3094.822021,2863.034180 
	C3096.197754,2866.657471 3097.218506,2870.415771 3098.643066,2874.854004 
	C3089.106445,2879.260010 3079.692627,2876.723145 3070.651367,2877.193115 
	C3062.015625,2877.641602 3053.337891,2877.290039 3044.678711,2877.290039 
	C3035.403076,2877.290039 3026.127197,2877.290039 3017.943848,2877.290039 
	C3010.883057,2872.032959 3010.171631,2865.029785 3007.881592,2858.981689 
	C2968.053711,2753.797363 2928.338867,2648.570068 2888.555176,2543.368896 
	C2886.206055,2537.157715 2883.666016,2531.003662 2880.896973,2524.968994 
	C2875.036621,2512.195312 2852.962158,2511.431396 2845.302734,2522.893311 
	C2842.379883,2527.267578 2840.151123,2532.201904 2838.207275,2537.118652 
	C2810.801758,2606.440674 2783.489014,2675.799316 2756.176270,2745.158203 
	C2741.300781,2782.932617 2726.488770,2820.732178 2711.592285,2858.498535 
	C2709.401611,2864.052246 2706.900146,2869.482910 2704.657471,2874.703125 
	C2688.628906,2878.360596 2636.416016,2878.245361 2620.510254,2874.329834 
	C2630.751221,2848.338379 2640.935547,2822.490234 2651.631836,2795.184814 
z"/>
<path fill="#4C9ACD" opacity="1.000000" stroke="none" 
	d="
M4913.237305,2462.805664 
	C4920.034180,2474.278076 4927.184570,2484.189697 4931.408691,2495.221680 
	C4978.296875,2617.673340 5024.736816,2740.296875 5071.269531,2862.884766 
	C5072.661133,2866.550293 5073.743652,2870.333252 5075.221680,2874.825684 
	C5066.080078,2879.396729 5056.656738,2876.711182 5047.652344,2877.182129 
	C5038.351074,2877.668213 5029.000977,2877.465576 5019.679688,2877.240723 
	C5010.458496,2877.018311 5001.125977,2878.298340 4991.307129,2875.971436 
	C4988.980957,2870.425537 4986.523926,2865.042480 4984.436523,2859.519531 
	C4944.436523,2753.679199 4904.487793,2647.819824 4864.495117,2541.976807 
	C4862.381836,2536.384277 4860.064941,2530.863037 4857.676270,2525.381104 
	C4851.442383,2511.071533 4827.500488,2511.968262 4820.899414,2523.918213 
	C4818.014648,2529.140625 4815.590820,2534.658691 4813.397949,2540.216309 
	C4783.589844,2615.755371 4753.875488,2691.331299 4724.101074,2766.883789 
	C4710.923340,2800.323730 4697.678223,2833.737061 4684.412109,2867.142334 
	C4683.218262,2870.150146 4681.649414,2873.009033 4680.464844,2875.496582 
	C4658.791016,2878.401367 4612.700195,2877.934570 4597.529297,2874.528320 
	C4599.241699,2869.590332 4600.742188,2864.692139 4602.616699,2859.941406 
	C4650.508789,2738.592285 4698.845703,2617.416260 4746.132324,2495.831787 
	C4761.591309,2456.083740 4789.771484,2437.001221 4831.360840,2435.807373 
	C4839.999023,2435.559814 4848.720215,2435.600830 4857.301758,2436.487305 
	C4878.391602,2438.664795 4897.543945,2445.476074 4913.237305,2462.805664 
z"/>
<path fill="#4B99CB" opacity="1.000000" stroke="none" 
	d="
M5218.883789,2776.004150 
	C5218.883789,2809.942871 5218.883789,2841.882080 5218.883789,2874.743408 
	C5214.350586,2875.712891 5210.685547,2877.137695 5207.005859,2877.177002 
	C5186.445312,2877.397461 5165.880859,2877.283203 5144.233398,2877.283203 
	C5143.621582,2872.344727 5142.749512,2868.573730 5142.746582,2864.802002 
	C5142.668945,2771.526367 5142.685547,2678.250977 5142.677734,2584.975342 
	C5142.675781,2564.782715 5146.057617,2545.167236 5153.314941,2526.337158 
	C5166.267090,2492.732178 5190.014160,2469.718506 5223.323242,2456.537109 
	C5243.949219,2448.374512 5265.507812,2443.886475 5287.652344,2443.777588 
	C5349.611816,2443.472900 5411.574219,2443.685791 5473.535156,2443.747803 
	C5475.492188,2443.749756 5477.448730,2444.340088 5480.533203,2444.838135 
	C5481.270508,2448.256836 5482.722168,2451.927734 5482.747070,2455.608154 
	C5482.884766,2476.160156 5483.229004,2496.728271 5482.531250,2516.268066 
	C5476.393066,2522.322998 5470.051270,2520.259521 5464.359863,2520.278320 
	C5411.060059,2520.455078 5357.758301,2520.168457 5304.460938,2520.560791 
	C5293.241211,2520.643555 5281.806641,2521.943115 5270.872559,2524.439697 
	C5242.939941,2530.818359 5221.305664,2550.052002 5219.509277,2584.894287 
	C5218.725098,2600.113281 5218.579590,2615.280029 5219.464844,2630.679688 
	C5227.284668,2634.513916 5234.711914,2633.036133 5241.804688,2633.049316 
	C5313.093750,2633.182617 5384.383301,2633.109619 5455.672363,2633.163086 
	C5462.867676,2633.168457 5470.062988,2633.622559 5476.838379,2633.853760 
	C5480.419434,2649.360352 5480.858398,2684.208984 5477.978516,2704.386230 
	C5471.435059,2708.663330 5463.900391,2706.759521 5456.790527,2706.775146 
	C5385.501465,2706.929688 5314.212402,2706.848877 5242.923340,2706.900635 
	C5235.734863,2706.905762 5228.545898,2707.345947 5220.153320,2707.624268 
	C5217.623535,2730.421143 5219.481445,2752.260986 5218.883789,2776.004150 
z"/>
<path fill="#4C9BCD" opacity="1.000000" stroke="none" 
	d="
M3715.429688,2607.414795 
	C3717.843994,2588.429443 3721.990479,2571.649902 3727.932861,2555.346924 
	C3749.363770,2496.550049 3791.377686,2461.382568 3852.202881,2448.761475 
	C3867.101318,2445.669922 3882.547363,2444.040039 3897.764893,2443.877197 
	C3951.719238,2443.299561 4005.683105,2443.624023 4059.643555,2443.687500 
	C4064.176025,2443.692871 4068.708008,2444.299316 4072.962402,2444.606201 
	C4076.543945,2460.221680 4076.721191,2500.875977 4073.237793,2519.466064 
	C4067.097900,2519.752686 4060.610352,2520.309082 4054.122070,2520.318848 
	C4004.158691,2520.392334 3954.193359,2520.128174 3904.233398,2520.530762 
	C3892.336670,2520.626709 3880.245361,2521.832520 3868.610107,2524.275391 
	C3835.518311,2531.221924 3812.650391,2550.750488 3800.285156,2582.429932 
	C3794.414551,2597.470215 3791.753906,2613.215820 3790.002686,2629.090088 
	C3786.395020,2661.791016 3787.852539,2694.280762 3796.231689,2726.213379 
	C3800.681641,2743.171875 3808.263184,2758.494873 3820.754639,2771.299316 
	C3838.531982,2789.522217 3861.031006,2796.552002 3885.301514,2799.441406 
	C3893.205078,2800.382324 3901.259277,2800.263672 3909.245117,2800.275146 
	C3957.209961,2800.343994 4005.174561,2800.286377 4053.139404,2800.336426 
	C4059.697510,2800.343506 4066.255127,2800.714600 4072.494873,2800.907227 
	C4076.432373,2814.868652 4077.179199,2849.024170 4074.239258,2875.965576 
	C4069.312500,2876.388916 4064.153076,2877.208740 4058.991943,2877.218018 
	C4007.030029,2877.310059 3955.067627,2877.425537 3903.106689,2877.211182 
	C3868.757812,2877.069336 3835.514404,2871.410889 3804.544189,2855.591309 
	C3775.751221,2840.884033 3754.265625,2818.969238 3738.977539,2790.530029 
	C3722.877930,2760.581055 3715.955078,2728.185791 3713.088623,2694.828857 
	C3710.634521,2666.265381 3710.618896,2637.621338 3715.429688,2607.414795 
z"/>
<path fill="#72C2ED" opacity="1.000000" stroke="none" 
	d="
M3167.496826,1182.816406 
	C3167.664551,1190.800781 3167.978027,1198.785278 3167.978760,1206.769653 
	C3168.004150,1470.380981 3168.011230,1733.992432 3167.953613,1997.603760 
	C3167.951416,2006.851562 3169.273926,2016.302246 3164.545898,2026.727783 
	C3153.315430,2023.250977 3142.343994,2018.919800 3132.271729,2013.045898 
	C3112.521729,2001.528320 3093.272949,1989.151367 3072.906250,1976.072754 
	C3075.857422,1964.844604 3076.066406,1954.259888 3076.059814,1943.538452 
	C3075.970947,1796.321045 3075.994141,1649.103638 3076.013184,1501.886230 
	C3076.014648,1491.926636 3075.099365,1481.843018 3081.353027,1470.612549 
	C3085.379883,1468.805298 3087.374756,1468.587891 3089.356201,1468.676880 
	C3115.194580,1469.836670 3134.412842,1439.964355 3124.803223,1416.758789 
	C3122.779541,1411.871948 3121.414307,1406.707031 3119.835205,1401.642456 
	C3107.090088,1360.763062 3105.704834,1319.424927 3116.382568,1278.025635 
	C3125.610352,1242.248779 3140.911377,1209.424438 3167.496826,1182.816406 
z"/>
<path fill="#5BB9E9" opacity="1.000000" stroke="none" 
	d="
M3252.016357,1551.696045 
	C3252.010986,1408.449341 3252.021973,1265.202637 3251.960449,1121.955933 
	C3251.956299,1112.692139 3253.172607,1103.237305 3248.921387,1091.609253 
	C3253.521240,1083.340942 3258.410400,1077.980225 3262.936768,1072.329102 
	C3279.919434,1051.126465 3277.575684,1029.816895 3256.444824,1011.991760 
	C3254.941406,1010.723450 3253.447266,1009.444397 3251.963623,1006.285156 
	C3251.985840,899.113647 3251.956299,793.827393 3252.055908,688.541260 
	C3252.066162,677.821472 3251.929443,667.220154 3247.986572,657.057739 
	C3270.139404,647.445740 3293.477051,641.731201 3318.420898,638.079468 
	C3319.987061,946.797119 3319.979980,1253.561035 3318.255615,1560.519531 
	C3304.804443,1558.916016 3292.875732,1557.907715 3281.395996,1555.078247 
	C3271.627197,1552.670410 3261.968750,1551.455933 3252.016357,1551.696045 
z"/>
<path fill="#90D1F3" opacity="1.000000" stroke="none" 
	d="
M2894.800293,916.675049 
	C2898.353760,918.044556 2902.323975,919.746094 2902.888916,922.224060 
	C2905.684082,934.486572 2908.244141,946.724854 2908.176514,959.582703 
	C2907.805664,1030.120239 2908.000000,1100.660522 2908.000000,1171.199951 
	C2908.000000,1368.177856 2907.968994,1565.155884 2908.074951,1762.133789 
	C2908.081299,1774.204468 2907.618896,1786.106567 2903.206055,1797.449341 
	C2902.332520,1799.694580 2899.908203,1801.336670 2896.757568,1803.750244 
	C2892.714111,1801.340088 2889.816162,1798.649048 2887.555420,1795.500488 
	C2864.773438,1763.772949 2844.024414,1730.809204 2828.244629,1692.974976 
	C2837.623779,1681.781982 2835.961670,1670.776489 2835.964111,1660.258667 
	C2836.012695,1460.746948 2836.000977,1261.235107 2835.994385,1061.723389 
	C2835.994141,1057.068848 2835.871338,1052.414307 2835.870117,1047.759766 
	C2835.868164,1039.299561 2830.968750,1036.034180 2823.228516,1035.731201 
	C2826.661133,1027.953247 2829.602539,1019.911560 2833.610840,1012.442566 
	C2851.374756,979.343750 2870.986328,947.384399 2894.800293,916.675049 
z"/>
<path fill="#4C9BCD" opacity="1.000000" stroke="none" 
	d="
M5670.775391,2671.999512 
	C5670.768555,2620.866455 5670.793945,2571.732666 5670.752930,2521.592529 
	C5648.041016,2519.209473 5627.511719,2520.692383 5607.058594,2520.417725 
	C5587.086914,2520.149414 5567.108398,2520.359375 5546.184570,2520.359375 
	C5545.256348,2516.062744 5543.810547,2512.381836 5543.770508,2508.685791 
	C5543.545898,2488.082764 5543.662109,2467.476074 5543.662109,2447.410889 
	C5550.366699,2441.770996 5557.297363,2443.745117 5563.681641,2443.729736 
	C5624.994629,2443.582031 5686.307129,2443.640625 5747.620117,2443.640625 
	C5782.275391,2443.640381 5816.930176,2443.640869 5851.585449,2443.640869 
	C5858.199707,2443.640869 5864.813477,2443.640869 5872.295410,2443.640869 
	C5873.278320,2448.318115 5874.704102,2452.004639 5874.720215,2455.697266 
	C5874.810547,2476.247803 5875.248535,2496.818115 5874.436035,2518.654785 
	C5868.976074,2519.306641 5864.593262,2520.263916 5860.206055,2520.283691 
	C5830.217285,2520.418945 5800.226562,2520.319824 5770.236816,2520.388916 
	C5763.674316,2520.404053 5757.112305,2520.793213 5750.102539,2521.024658 
	C5746.387695,2528.507812 5747.790527,2535.922119 5747.780273,2543.001709 
	C5747.665039,2622.975098 5747.708008,2702.948242 5747.707520,2782.921631 
	C5747.707520,2808.246582 5747.736328,2833.571289 5747.680176,2858.896240 
	C5747.668457,2864.114014 5747.339355,2869.331055 5747.171875,2874.098633 
	C5731.838379,2877.975586 5692.898438,2878.390381 5673.259766,2875.204346 
	C5672.788086,2874.733398 5672.201172,2874.328857 5671.878906,2873.771240 
	C5671.564453,2873.227783 5671.377930,2872.528320 5671.375977,2871.896484 
	C5671.161133,2805.930908 5670.968750,2739.965088 5670.775391,2671.999512 
z"/>
<path fill="#4C9BCD" opacity="1.000000" stroke="none" 
	d="
M3140.292480,2687.994141 
	C3140.295898,2606.145752 3140.284180,2526.295654 3140.301270,2446.902100 
	C3155.321533,2442.945312 3182.255127,2442.241943 3213.311035,2444.629150 
	C3218.355469,2450.135010 3216.258301,2457.114258 3216.274170,2463.484131 
	C3216.430420,2525.469971 3216.368408,2587.456543 3216.368896,2649.442871 
	C3216.368896,2672.770996 3216.069824,2696.104980 3216.512451,2719.424805 
	C3216.700928,2729.353760 3217.620605,2739.424805 3219.649414,2749.130127 
	C3223.886475,2769.402832 3235.986572,2783.779053 3255.133789,2791.898682 
	C3270.081055,2798.237549 3285.760742,2800.441895 3301.973389,2800.376221 
	C3351.295166,2800.176758 3400.617920,2800.307373 3449.940430,2800.309326 
	C3456.564697,2800.309570 3463.188721,2800.309326 3470.520508,2800.309326 
	C3471.531494,2803.338867 3472.971924,2805.673340 3472.990234,2808.018799 
	C3473.163574,2829.994141 3473.093018,2851.971191 3473.093018,2874.123291 
	C3471.051514,2875.187012 3469.370605,2876.829590 3467.692383,2876.826904 
	C3403.057373,2876.724121 3338.420166,2876.746338 3273.790527,2876.048828 
	C3257.105957,2875.868896 3240.853516,2871.464355 3225.122070,2865.706299 
	C3179.833252,2849.129639 3153.436768,2816.379883 3144.224121,2769.653564 
	C3141.665527,2756.676270 3141.050537,2743.242920 3140.430176,2729.977295 
	C3139.808350,2716.676025 3140.292969,2703.322754 3140.292480,2687.994141 
z"/>
<path fill="#52B5E8" opacity="1.000000" stroke="none" 
	d="
M3319.972900,1560.324829 
	C3319.979980,1253.561035 3319.987061,946.797119 3319.995117,638.179749 
	C3330.769287,633.595093 3341.516846,630.756348 3352.326660,628.179932 
	C3357.433838,626.962646 3362.660889,626.247986 3369.546875,625.376282 
	C3371.507080,636.089050 3371.965820,646.731018 3371.968262,657.373169 
	C3372.011963,842.401245 3371.988281,1027.429321 3372.030273,1212.457397 
	C3372.032715,1223.043335 3370.788330,1233.848022 3376.232422,1246.614258 
	C3371.305176,1255.432373 3365.894043,1261.180298 3361.167969,1267.445190 
	C3346.407227,1287.012329 3349.412109,1309.669434 3368.565430,1324.642700 
	C3371.132812,1326.649902 3374.045898,1328.215332 3376.099365,1331.677490 
	C3371.393555,1341.413452 3372.010986,1350.085449 3372.008301,1358.659668 
	C3371.991943,1410.220337 3371.945312,1461.781006 3372.034424,1513.341553 
	C3372.060547,1528.538818 3372.495605,1543.735352 3371.152588,1559.413452 
	C3353.044434,1561.445557 3336.535156,1563.945068 3319.972900,1560.324829 
z"/>
<path fill="#97D3F3" opacity="1.000000" stroke="none" 
	d="
M2822.141113,1036.578369 
	C2830.968750,1036.034180 2835.868164,1039.299561 2835.870117,1047.759766 
	C2835.871338,1052.414307 2835.994141,1057.068848 2835.994385,1061.723389 
	C2836.000977,1261.235107 2836.012695,1460.746948 2835.964111,1660.258667 
	C2835.961670,1670.776489 2837.623779,1681.781982 2828.008301,1691.530762 
	C2821.386719,1681.979126 2815.522705,1671.601318 2810.696533,1660.761230 
	C2777.905762,1587.110352 2758.375000,1510.051758 2751.025635,1429.757202 
	C2738.464355,1292.517944 2762.026367,1161.833252 2822.141113,1036.578369 
z"/>
<path fill="#59B8E9" opacity="1.000000" stroke="none" 
	d="
M3251.697754,2065.710449 
	C3256.942139,2059.905273 3259.615723,2053.320557 3259.827393,2045.616089 
	C3259.991943,2039.625732 3259.993164,2033.629639 3259.993652,2027.636108 
	C3260.007812,1897.091675 3260.011719,1766.547119 3261.638672,1634.149658 
	C3289.224121,1638.281372 3315.497070,1641.308716 3342.170166,1640.673950 
	C3345.466797,1640.595459 3348.775879,1641.058960 3352.079346,1641.271362 
	C3352.048096,1790.208740 3352.016846,1939.146118 3351.982910,2089.945557 
	C3330.211182,2090.079590 3309.502686,2083.445557 3288.593262,2077.857910 
	C3276.534180,2074.635498 3264.723877,2070.482422 3251.697754,2065.710449 
z"/>
<path fill="#72C2ED" opacity="1.000000" stroke="none" 
	d="
M3077.385742,1164.711426 
	C3071.652832,1161.626709 3068.354492,1156.968506 3068.226318,1150.335693 
	C3068.110596,1144.342773 3068.018799,1138.348145 3068.018311,1132.354248 
	C3068.006104,1016.443298 3068.012695,900.532349 3067.999023,784.621399 
	C3067.998535,778.628174 3067.922852,772.632874 3067.750732,766.642334 
	C3067.629150,762.422607 3066.129150,758.872070 3060.606445,756.213928 
	C3071.432129,746.799500 3083.391846,737.350342 3096.235107,729.313354 
	C3113.073486,718.776550 3130.608887,709.353882 3150.416504,700.649292 
	C3157.609619,709.150085 3155.925049,717.330750 3155.936523,725.162170 
	C3156.054932,805.495300 3156.371338,885.831116 3155.838135,966.160889 
	C3155.613281,1000.039917 3156.822021,1033.728760 3160.855957,1068.365967 
	C3134.349609,1100.221680 3108.425293,1131.016479 3082.396240,1161.722656 
	C3081.206543,1163.126221 3079.077393,1163.733398 3077.385742,1164.711426 
z"/>
<path fill="#67BDEB" opacity="1.000000" stroke="none" 
	d="
M3161.418213,1067.288086 
	C3156.822021,1033.728760 3155.613281,1000.039917 3155.838135,966.160889 
	C3156.371338,885.831116 3156.054932,805.495300 3155.936523,725.162170 
	C3155.925049,717.330750 3157.609619,709.150085 3151.809082,700.569458 
	C3169.066895,690.240601 3187.312012,680.765991 3206.007568,672.283875 
	C3218.714600,666.518616 3232.052979,662.143860 3246.547852,657.102478 
	C3251.929443,667.220154 3252.066162,677.821472 3252.055908,688.541260 
	C3251.956299,793.827393 3251.985840,899.113647 3250.449951,1006.198486 
	C3229.494385,1002.313660 3214.212646,1008.394165 3201.268311,1023.527100 
	C3188.450195,1038.512207 3174.738281,1052.732422 3161.418213,1067.288086 
z"/>
<path fill="#4C9BCD" opacity="1.000000" stroke="none" 
	d="
M1532.369385,2472.299316 
	C1532.227661,2606.676270 1532.090210,2739.084717 1531.874756,2871.492920 
	C1531.872925,2872.641602 1530.820068,2873.789062 1530.256348,2874.936035 
	C1513.688354,2878.090576 1474.054321,2878.070557 1456.542847,2874.671387 
	C1456.268921,2871.835693 1455.694214,2868.656738 1455.693237,2865.478027 
	C1455.648682,2725.841553 1455.654785,2586.204834 1455.654785,2446.970215 
	C1469.847046,2442.935547 1506.269653,2442.263428 1530.549927,2445.354004 
	C1533.876465,2453.231689 1531.807983,2461.925781 1532.369385,2472.299316 
z"/>
<path fill="#FCFEFE" opacity="1.000000" stroke="none" 
	d="
M3376.798828,1329.985229 
	C3374.045898,1328.215332 3371.132812,1326.649902 3368.565430,1324.642700 
	C3349.412109,1309.669434 3346.407227,1287.012329 3361.167969,1267.445190 
	C3365.894043,1261.180298 3371.305176,1255.432373 3376.988770,1248.350586 
	C3407.100098,1214.231689 3436.495117,1181.092163 3466.196289,1148.229370 
	C3485.898682,1126.429810 3509.203125,1108.943237 3534.992676,1092.420898 
	C3541.382812,1088.936523 3546.846924,1086.528442 3552.187988,1083.872681 
	C3611.912354,1054.176147 3674.759766,1045.077515 3740.543213,1055.187988 
	C3744.490234,1055.794678 3748.463379,1056.231567 3754.125488,1056.711182 
	C3761.456543,1058.514160 3767.022949,1060.583008 3772.726318,1062.156860 
	C3830.609863,1078.129272 3879.812012,1108.423462 3919.374268,1153.408325 
	C3933.716553,1169.716431 3945.179932,1188.556519 3958.986816,1207.121216 
	C3961.529297,1211.653320 3962.879395,1215.382935 3964.579102,1218.945923 
	C4007.080322,1308.047119 4007.960205,1397.773315 3968.698242,1488.117798 
	C3967.378174,1491.155640 3965.990479,1494.163940 3964.397461,1498.595947 
	C3961.958740,1503.297852 3959.511475,1506.453735 3957.594727,1509.903931 
	C3945.930664,1530.899780 3931.775146,1550.092163 3915.909424,1568.068970 
	C3886.474365,1601.420898 3857.029541,1634.764160 3827.630371,1668.147827 
	C3821.884033,1674.672852 3815.919189,1680.716187 3807.449951,1683.838135 
	C3796.130615,1688.010620 3785.319824,1686.891602 3773.327148,1681.344238 
	C3754.771729,1666.263916 3750.481445,1648.550537 3761.065430,1625.433105 
	C3774.061523,1610.189697 3785.625000,1597.306641 3797.009033,1584.266724 
	C3821.090088,1556.683105 3845.657471,1529.496338 3868.962891,1501.269653 
	C3901.451904,1461.920532 3918.443359,1415.879272 3919.221191,1365.160034 
	C3920.409180,1287.689575 3890.165771,1224.088013 3828.716309,1176.254883 
	C3807.061768,1159.398682 3783.260010,1146.179565 3755.994873,1140.333618 
	C3734.101074,1130.913330 3710.648682,1129.339355 3687.549561,1129.745850 
	C3647.082275,1130.457642 3608.650879,1140.429321 3571.610107,1163.420410 
	C3545.581787,1178.686401 3526.619385,1198.086548 3508.580078,1218.492676 
	C3480.935547,1249.763916 3453.063721,1280.844604 3425.967285,1312.585693 
	C3412.570557,1328.279053 3397.107666,1335.244507 3376.798828,1329.985229 
z"/>
<path fill="#56A5DC" opacity="1.000000" stroke="none" 
	d="
M3755.996582,1142.184814 
	C3783.260010,1146.179565 3807.061768,1159.398682 3828.716309,1176.254883 
	C3890.165771,1224.088013 3920.409180,1287.689575 3919.221191,1365.160034 
	C3918.443359,1415.879272 3901.451904,1461.920532 3868.962891,1501.269653 
	C3845.657471,1529.496338 3821.090088,1556.683105 3797.009033,1584.266724 
	C3785.625000,1597.306641 3774.061523,1610.189697 3761.450684,1623.879883 
	C3756.780273,1617.955811 3755.806641,1610.803711 3755.972900,1603.354126 
	C3756.136719,1596.035400 3756.000000,1588.710083 3756.000000,1581.387573 
	C3755.999268,1435.603638 3755.999023,1289.819824 3755.996582,1142.184814 
z"/>
<path fill="#4CB0E5" opacity="1.000000" stroke="none" 
	d="
M3376.099365,1331.677490 
	C3397.107666,1335.244507 3412.570557,1328.279053 3425.967285,1312.585693 
	C3453.063721,1280.844604 3480.935547,1249.763916 3508.580078,1218.492676 
	C3526.619385,1198.086548 3545.581787,1178.686401 3570.723877,1164.479004 
	C3576.253174,1182.461670 3576.135254,1201.051514 3576.068115,1219.696167 
	C3575.875732,1272.984009 3575.925293,1326.273438 3576.087891,1379.561523 
	C3576.109863,1386.794189 3577.319092,1394.023071 3578.414062,1403.843140 
	C3565.689941,1421.468750 3552.662109,1436.622437 3539.335938,1451.509277 
	C3525.124023,1467.385498 3511.395752,1483.801392 3496.103516,1498.582153 
	C3461.635254,1531.897827 3420.750732,1552.896606 3372.743164,1558.932251 
	C3372.495605,1543.735352 3372.060547,1528.538818 3372.034424,1513.341553 
	C3371.945312,1461.781006 3371.991943,1410.220337 3372.008301,1358.659668 
	C3372.010986,1350.085449 3371.393555,1341.413452 3376.099365,1331.677490 
z"/>
<path fill="#FCFEFE" opacity="1.000000" stroke="none" 
	d="
M3371.152588,1559.413452 
	C3420.750732,1552.896606 3461.635254,1531.897827 3496.103516,1498.582153 
	C3511.395752,1483.801392 3525.124023,1467.385498 3539.335938,1451.509277 
	C3552.662109,1436.622437 3565.689941,1421.468750 3579.356445,1405.199951 
	C3587.145996,1396.261963 3594.391113,1388.521118 3601.725342,1380.865234 
	C3605.862305,1376.546997 3609.732178,1371.828125 3614.439697,1368.227783 
	C3628.908447,1357.161987 3648.685791,1357.804810 3662.494141,1369.271362 
	C3676.735596,1381.097534 3680.963623,1401.934570 3671.762451,1418.135498 
	C3668.519775,1423.845215 3663.944092,1428.867676 3659.585449,1433.862549 
	C3630.257568,1467.471313 3600.823975,1500.988037 3570.822266,1535.616455 
	C3563.449951,1543.039307 3556.524170,1549.222656 3549.935791,1555.746826 
	C3506.644287,1598.617432 3454.324951,1624.048828 3394.979004,1635.609131 
	C3382.009033,1638.135864 3368.714600,1638.997559 3353.824463,1640.948730 
	C3348.775879,1641.058960 3345.466797,1640.595459 3342.170166,1640.673950 
	C3315.497070,1641.308716 3289.224121,1638.281372 3261.640625,1632.293091 
	C3255.751953,1630.550781 3251.497559,1628.773926 3247.210693,1627.079224 
	C3217.594482,1615.371216 3215.918701,1575.120850 3239.388672,1559.113770 
	C3242.649658,1556.889648 3246.248535,1555.161133 3250.853760,1552.449707 
	C3261.968750,1551.455933 3271.627197,1552.670410 3281.395996,1555.078247 
	C3292.875732,1557.907715 3304.804443,1558.916016 3318.255615,1560.519531 
	C3336.535156,1563.945068 3353.044434,1561.445557 3371.152588,1559.413452 
z"/>
<path fill="#FCFEFE" opacity="1.000000" stroke="none" 
	d="
M3160.855957,1068.365967 
	C3174.738281,1052.732422 3188.450195,1038.512207 3201.268311,1023.527100 
	C3214.212646,1008.394165 3229.494385,1002.313660 3250.435059,1008.083740 
	C3253.447266,1009.444397 3254.941406,1010.723450 3256.444824,1011.991760 
	C3277.575684,1029.816895 3279.919434,1051.126465 3262.936768,1072.329102 
	C3258.410400,1077.980225 3253.521240,1083.340942 3248.245605,1090.026123 
	C3238.285400,1101.445679 3228.697754,1111.515015 3219.510742,1121.937256 
	C3202.408691,1141.339111 3185.540039,1160.946533 3168.035645,1181.642456 
	C3140.911377,1209.424438 3125.610352,1242.248779 3116.382568,1278.025635 
	C3105.704834,1319.424927 3107.090088,1360.763062 3119.835205,1401.642456 
	C3121.414307,1406.707031 3122.779541,1411.871948 3124.803223,1416.758789 
	C3134.412842,1439.964355 3115.194580,1469.836670 3089.356201,1468.676880 
	C3087.374756,1468.587891 3085.379883,1468.805298 3081.738281,1469.061279 
	C3062.623535,1463.882202 3052.759277,1451.680542 3047.475342,1434.572388 
	C3038.811523,1406.520630 3032.229492,1378.227905 3031.381348,1348.667725 
	C3030.246094,1309.100708 3033.634033,1270.222778 3047.660400,1232.931152 
	C3053.259521,1218.045166 3060.387451,1203.730347 3066.920410,1189.201050 
	C3070.175537,1181.962158 3073.658936,1174.825928 3077.212402,1166.177368 
	C3079.077393,1163.733398 3081.206543,1163.126221 3082.396240,1161.722656 
	C3108.425293,1131.016479 3134.349609,1100.221680 3160.855957,1068.365967 
z"/>
</svg>